<svg xmlns="http://www.w3.org/2000/svg" viewBox="0 0 24 24" fill="#336791">
  <path d="M12 3C7.58 3 4 4.79 4 7c0 2.21 3.58 4 8 4s8-1.79 8-4c0-2.21-3.58-4-8-4zM4 9v3c0 2.21 3.58 4 8 4s8-1.79 8-4V9c0 2.21-3.58 4-8 4s-8-1.79-8-4z"/>
  <path d="M4 14v3c0 2.21 3.58 4 8 4s8-1.79 8-4v-3c0 2.21-3.58 4-8 4s-8-1.79-8-4z"/>
  <circle cx="8" cy="7" r="1"/>
  <circle cx="16" cy="7" r="1"/>
  <circle cx="8" cy="12" r="1"/>
  <circle cx="16" cy="12" r="1"/>
  <circle cx="8" cy="17" r="1"/>
  <circle cx="16" cy="17" r="1"/>
</svg>