<svg xmlns="http://www.w3.org/2000/svg" viewBox="0 0 24 24" fill="#339933">
  <path d="M11.998,24c-0.321,0-0.641-0.084-0.922-0.247l-2.936-1.737c-0.438-0.245-0.224-0.332-0.080-0.383 c0.561-0.203,0.902-0.445,0.902-0.793c0-0.498-0.416-0.902-0.928-0.902H3.211c-0.321,0-0.641-0.084-0.922-0.247 C1.251,18.186,0.5,16.958,0.5,15.5v-7c0-1.458,0.751-2.686,1.789-3.253C2.57,5.084,2.89,5,3.211,5h4.661 c0.512,0,0.928,0.404,0.928,0.902c0,0.348-0.341,0.59-0.902,0.793c-0.144,0.051-0.358,0.138,0.080,0.383l2.936,1.737 c0.438,0.245,0.224,0.332,0.080,0.383c-0.561,0.203-0.902,0.445-0.902,0.793c0,0.498,0.416,0.902,0.928,0.902h4.661 c0.321,0,0.641,0.084,0.922,0.247C22.749,10.814,23.5,12.042,23.5,13.5v7c0,1.458-0.751,2.686-1.789,3.253 C21.43,23.916,21.11,24,20.789,24H11.998z M3.211,6C2.89,6,2.57,6.084,2.289,6.247C1.751,6.686,1.5,7.458,1.5,8.5v7 c0,1.042,0.251,1.814,0.789,2.253C2.57,17.916,2.89,18,3.211,18h4.661c0.512,0,0.928-0.404,0.928-0.902 c0-0.348-0.341-0.59-0.902-0.793c-0.144-0.051-0.358-0.138,0.080-0.383l2.936-1.737c0.438-0.245,0.224-0.332,0.080-0.383 c0.561-0.203,0.902-0.445,0.902-0.793c0-0.498-0.416-0.902-0.928-0.902H3.211z M20.789,18c0.321,0,0.641-0.084,0.922-0.247 C22.249,17.314,22.5,16.542,22.5,15.5v-7c0-1.042-0.251-1.814-0.789-2.253C21.43,6.084,21.11,6,20.789,6h-4.661 c-0.512,0-0.928,0.404-0.928,0.902c0,0.348,0.341,0.59,0.902,0.793c0.144,0.051,0.358,0.138-0.080,0.383l-2.936,1.737 c-0.438,0.245-0.224,0.332-0.080,0.383c-0.561,0.203-0.902,0.445-0.902,0.793c0,0.498,0.416,0.902,0.928,0.902H20.789z"/>
</svg>